<svg xmlns="http://www.w3.org/2000/svg" viewBox="0 0 279.38 274.28"><g id="Layer_2" data-name="Layer 2"><g id="Layer_1-2" data-name="Layer 1"><rect x="76.26" width="128.49" height="24.73" style="fill:#342f2e"/><rect x="50.84" y="24.73" width="25.42" height="24.73" style="fill:#342f2e"/><rect x="25.42" y="49.46" width="25.42" height="24.73" style="fill:#342f2e"/><rect y="74.19" width="25.42" height="125.6" style="fill:#342f2e"/><rect x="25.42" y="199.89" width="25.42" height="24.73" style="fill:#342f2e"/><rect x="50.84" y="224.72" width="25.42" height="24.73" style="fill:#342f2e"/><rect x="253.96" y="74.19" width="25.42" height="125.6" style="fill:#342f2e"/><rect x="228.54" y="199.89" width="25.42" height="24.73" style="fill:#342f2e"/><rect x="204.76" y="224.72" width="23.78" height="24.83" style="fill:#342f2e"/><rect x="76.26" y="249.55" width="128.49" height="24.73" style="fill:#342f2e"/><rect x="204.76" y="24.73" width="23.78" height="24.73" style="fill:#342f2e"/><rect x="228.54" y="49.46" width="25.42" height="24.73" style="fill:#342f2e"/><rect x="228.54" y="74.19" width="25.42" height="125.6" style="fill:#fdab00"/><rect x="76.26" y="24.73" width="128.49" height="24.73" style="fill:#fff100"/><rect x="76.26" y="224.72" width="128.49" height="24.73" style="fill:#fcab01"/><rect x="204.76" y="199.89" width="23.78" height="24.83" style="fill:#fdab00"/><rect x="25.42" y="74.19" width="25.42" height="125.6" style="fill:#fff100"/><rect x="50.84" y="49.46" width="25.42" height="24.73" style="fill:#fff100"/><rect x="50.84" y="199.89" width="25.42" height="24.73" style="fill:#fff100"/><rect x="204.76" y="49.46" width="23.78" height="24.73" style="fill:#fdab00"/><polygon points="204.76 74.19 204.76 49.46 76.26 49.46 76.26 74.19 50.84 74.19 50.84 199.79 228.54 199.79 228.54 74.19 204.76 74.19" style="fill:#feda00"/><rect x="76.26" y="199.89" width="128.49" height="24.73" style="fill:#feda00"/><rect x="76.26" y="100.57" width="25.42" height="26.23" style="fill:#fff"/><rect x="101.69" y="74.33" width="25.42" height="26.23" style="fill:#fff"/></g></g></svg>